<svg width="32" height="32" viewBox="0 0 32 32" fill="none" xmlns="http://www.w3.org/2000/svg">
  <!-- Rainbow background ring -->
  <circle cx="16" cy="16" r="16" fill="url(#rainbowGradient)" />
  
  <!-- Main emoji circle with vibrant gradient -->
  <circle cx="16" cy="16" r="14" fill="url(#emojiGradient)" />
  
  <!-- Circuit board pattern overlay -->
  <path d="M4 20C8 18 12 22 16 18C20 14 24 20 28 16" stroke="url(#circuitGradient)" stroke-width="0.7" stroke-opacity="0.8" stroke-dasharray="1 1.5" />
  <path d="M4 12C8 14 12 10 16 14C20 18 24 12 28 16" stroke="url(#circuitGradient)" stroke-width="0.7" stroke-opacity="0.8" stroke-dasharray="1 1.5" />
  
  <!-- Happy smile curve -->
  <path d="M10 18C10 18 12 23 16 23C20 23 22 18 22 18" stroke="white" stroke-width="2" stroke-linecap="round" />
  
  <!-- Colorful eyes -->
  <circle cx="11" cy="13" r="2.2" fill="url(#leftEyeGradient)" />
  <circle cx="21" cy="13" r="2.2" fill="url(#rightEyeGradient)" />
  
  <!-- Eyebrow accents -->
  <path d="M9 10.5C10 9.5 12 10 13 11" stroke="white" stroke-width="0.8" stroke-linecap="round" />
  <path d="M23 10.5C22 9.5 20 10 19 11" stroke="white" stroke-width="0.8" stroke-linecap="round" />
  
  <!-- Rosy cheeks -->
  <circle cx="8.5" cy="17" r="1.5" fill="#FF6B6B" fill-opacity="0.4" />
  <circle cx="23.5" cy="17" r="1.5" fill="#FF6B6B" fill-opacity="0.4" />
  
  <!-- Sparkle elements -->
  <path d="M6 4L7 6L9 7L7 8L6 10L5 8L3 7L5 6L6 4Z" fill="#FFD700" />
  <path d="M26 4L27 6L29 7L27 8L26 10L25 8L23 7L25 6L26 4Z" fill="#FF6B6B" />
  <path d="M16 26L17 28L19 29L17 30L16 32L15 30L13 29L15 28L16 26Z" fill="#5EEAD4" />
  
  <!-- Small glow dots -->
  <circle cx="27" cy="16" r="1" fill="#FFD700" />
  <circle cx="5" cy="16" r="1" fill="#5EEAD4" />
  <circle cx="16" cy="5" r="1" fill="#FF6B6B" />
  <circle cx="16" cy="27" r="1" fill="#FFD700" />
  
  <!-- Gradient definitions -->
  <defs>
    <!-- Rainbow outer ring gradient -->
    <linearGradient id="rainbowGradient" x1="0" y1="0" x2="32" y2="32" gradientUnits="userSpaceOnUse">
      <stop offset="0%" stop-color="#FF6B6B" />
      <stop offset="25%" stop-color="#FFD700" />
      <stop offset="50%" stop-color="#5EEAD4" />
      <stop offset="75%" stop-color="#A78BFA" />
      <stop offset="100%" stop-color="#FF6B6B" />
    </linearGradient>
    
    <!-- Emoji face gradient -->
    <linearGradient id="emojiGradient" x1="2" y1="2" x2="30" y2="30" gradientUnits="userSpaceOnUse">
      <stop offset="0%" stop-color="#4F46E5" />
      <stop offset="100%" stop-color="#0F172A" />
    </linearGradient>
    
    <!-- Circuit pattern gradient -->
    <linearGradient id="circuitGradient" x1="4" y1="16" x2="28" y2="16" gradientUnits="userSpaceOnUse">
      <stop offset="0%" stop-color="#5EEAD4" />
      <stop offset="50%" stop-color="#A78BFA" />
      <stop offset="100%" stop-color="#FF6B6B" />
    </linearGradient>
    
    <!-- Eye gradients -->
    <radialGradient id="leftEyeGradient" cx="11" cy="13" r="2.2" gradientUnits="userSpaceOnUse">
      <stop offset="0%" stop-color="white" />
      <stop offset="70%" stop-color="white" />
      <stop offset="100%" stop-color="#A78BFA" />
    </radialGradient>
    
    <radialGradient id="rightEyeGradient" cx="21" cy="13" r="2.2" gradientUnits="userSpaceOnUse">
      <stop offset="0%" stop-color="white" />
      <stop offset="70%" stop-color="white" />
      <stop offset="100%" stop-color="#A78BFA" />
    </radialGradient>
  </defs>
</svg> 