<svg width="50" height="50" viewBox="0 0 50 50" fill="none" xmlns="http://www.w3.org/2000/svg">
<path d="M34.0667 19.4747L4.85834 48.6747C4.70435 48.8311 4.52079 48.9553 4.31835 49.04C4.11592 49.1248 3.89864 49.1684 3.67918 49.1684C3.45971 49.1684 3.24244 49.1248 3.04 49.04C2.83756 48.9553 2.65401 48.8311 2.50001 48.6747L1.32501 47.4997C1.16864 47.3457 1.04447 47.1622 0.959708 46.9598C0.874949 46.7573 0.831299 46.54 0.831299 46.3206C0.831299 46.1011 0.874949 45.8838 0.959708 45.6814C1.04447 45.479 1.16864 45.2954 1.32501 45.1414L30.5333 15.9414L34.0667 19.4747Z" fill="#37474F"/>
<path d="M37.0083 16.5251L34.0667 19.4751L30.5333 15.9418L33.475 12.9918C33.629 12.8354 33.8125 12.7112 34.015 12.6265C34.2174 12.5417 34.4347 12.498 34.6542 12.498C34.8736 12.498 35.0909 12.5417 35.2933 12.6265C35.4958 12.7112 35.6793 12.8354 35.8333 12.9918L37.0083 14.1668C37.1647 14.3208 37.2889 14.5043 37.3736 14.7067C37.4584 14.9092 37.502 15.1265 37.502 15.3459C37.502 15.5654 37.4584 15.7827 37.3736 15.9851C37.2889 16.1875 37.1647 16.3711 37.0083 16.5251Z" fill="#C6CFD3"/>
<path d="M30.5334 15.9419L30.525 15.9336Z" fill="#37474F"/>
<path d="M34.5767 1.07715L35.75 3.22799C35.7928 3.30654 35.8573 3.37107 35.9359 3.41382L38.0867 4.59049C38.1602 4.63077 38.2216 4.69009 38.2643 4.76222C38.307 4.83435 38.3296 4.91665 38.3296 5.00049C38.3296 5.08433 38.307 5.16662 38.2643 5.23876C38.2216 5.31089 38.1602 5.3702 38.0867 5.41049L35.9392 6.58382C35.8606 6.62657 35.7961 6.6911 35.7534 6.76965L34.5767 8.92049C34.5364 8.99402 34.4771 9.05536 34.405 9.09809C34.3328 9.14082 34.2505 9.16336 34.1667 9.16336C34.0829 9.16336 34.0006 9.14082 33.9284 9.09809C33.8563 9.05536 33.797 8.99402 33.7567 8.92049L32.5834 6.77299C32.5406 6.69443 32.4761 6.6299 32.3975 6.58715L30.2434 5.41049C30.1698 5.3702 30.1085 5.31089 30.0658 5.23876C30.023 5.16662 30.0005 5.08433 30.0005 5.00049C30.0005 4.91665 30.023 4.83435 30.0658 4.76222C30.1085 4.69009 30.1698 4.63077 30.2434 4.59049L32.3942 3.41715C32.4728 3.37441 32.5373 3.30987 32.58 3.23132L33.7567 1.08049C33.7967 1.0068 33.8557 0.945211 33.9277 0.902187C33.9997 0.859163 34.0819 0.836282 34.1657 0.835941C34.2495 0.835601 34.3319 0.857812 34.4042 0.90025C34.4766 0.942688 34.5361 1.00379 34.5767 1.07715ZM34.6567 30.138L35.8334 32.2888C35.8761 32.3674 35.9406 32.4319 36.0192 32.4747L38.1667 33.6513C38.2402 33.6916 38.3016 33.7509 38.3443 33.8231C38.387 33.8952 38.4096 33.9775 38.4096 34.0613C38.4096 34.1452 38.387 34.2275 38.3443 34.2996C38.3016 34.3717 38.2402 34.431 38.1667 34.4713L36.0159 35.648C35.9387 35.6915 35.8754 35.7559 35.8334 35.8338L34.6567 37.9847C34.6164 38.0582 34.5571 38.1195 34.485 38.1623C34.4128 38.205 34.3305 38.2275 34.2467 38.2275C34.1629 38.2275 34.0806 38.205 34.0084 38.1623C33.9363 38.1195 33.877 38.0582 33.8367 37.9847L32.66 35.8338C32.6171 35.7554 32.5526 35.691 32.4742 35.648L30.3234 34.4713C30.2498 34.431 30.1885 34.3717 30.1458 34.2996C30.103 34.2275 30.0805 34.1452 30.0805 34.0613C30.0805 33.9775 30.103 33.8952 30.1458 33.8231C30.1885 33.7509 30.2498 33.6916 30.3234 33.6513L32.4742 32.4747C32.5528 32.4319 32.6173 32.3674 32.66 32.2888L33.8334 30.138C33.8734 30.0636 33.9328 30.0015 34.0053 29.9582C34.0777 29.9149 34.1606 29.892 34.245 29.892C34.3295 29.892 34.4123 29.9149 34.4848 29.9582C34.5573 30.0015 34.6167 30.0636 34.6567 30.138ZM41.995 7.69465L42.9359 9.41716C42.9701 9.47976 43.0216 9.53124 43.0842 9.56549L44.8059 10.5063C44.8648 10.5385 44.914 10.586 44.9483 10.6438C44.9825 10.7016 45.0006 10.7675 45.0006 10.8347C45.0006 10.9018 44.9825 10.9678 44.9483 11.0255C44.914 11.0833 44.8648 11.1308 44.8059 11.163L43.0834 12.103C43.0208 12.1372 42.9693 12.1887 42.935 12.2513L41.9942 13.973C41.962 14.0319 41.9145 14.0811 41.8567 14.1154C41.799 14.1496 41.733 14.1677 41.6659 14.1677C41.5987 14.1677 41.5328 14.1496 41.475 14.1154C41.4172 14.0811 41.3697 14.0319 41.3375 13.973L40.3975 12.2505C40.3633 12.1879 40.3118 12.1364 40.2492 12.1022L38.5275 11.1613C38.4686 11.1291 38.4194 11.0816 38.3851 11.0239C38.3509 10.9661 38.3328 10.9002 38.3328 10.833C38.3328 10.7658 38.3509 10.6999 38.3851 10.6421C38.4194 10.5843 38.4686 10.5369 38.5275 10.5047L40.25 9.56466C40.3126 9.5304 40.3641 9.47893 40.3984 9.41632L41.3392 7.69465C41.3715 7.63592 41.4189 7.58693 41.4766 7.55281C41.5343 7.51869 41.6001 7.50069 41.6671 7.50069C41.7341 7.50069 41.7999 7.51869 41.8576 7.55281C41.9153 7.58693 41.9628 7.63592 41.995 7.69465Z" fill="#FFD300"/>
<path d="M33.4593 31.6498H33.4168C31.9701 31.5831 30.5401 31.3165 29.1668 30.8573C28.9584 30.7856 28.7869 30.6345 28.6894 30.4369C28.592 30.2393 28.5767 30.0112 28.6467 29.8023C28.7167 29.5934 28.8665 29.4206 29.0633 29.3217C29.2602 29.2227 29.4882 29.2056 29.6976 29.274C30.9251 29.684 32.2034 29.9223 33.4959 29.9815C33.7169 29.9865 33.9269 30.0792 34.0796 30.2391C34.2323 30.399 34.3152 30.613 34.3101 30.834C34.305 31.055 34.2123 31.2649 34.0525 31.4176C33.8926 31.5703 33.6786 31.6532 33.4576 31.6481L33.4593 31.6498ZM39.3709 20.8331C39.214 20.8329 39.0604 20.7883 38.9277 20.7046C38.795 20.621 38.6887 20.5015 38.6208 20.36C38.553 20.2186 38.5265 20.0608 38.5444 19.905C38.5622 19.7491 38.6237 19.6014 38.7218 19.479C39.2384 18.8366 39.6115 18.091 39.8159 17.2923C39.8712 17.0781 40.0093 16.8947 40.1998 16.7823C40.3903 16.67 40.6176 16.6379 40.8318 16.6931C41.0459 16.7484 41.2294 16.8865 41.3417 17.077C41.4541 17.2675 41.4862 17.4948 41.4309 17.709C41.1673 18.7366 40.6869 19.6958 40.0218 20.5223C39.9435 20.6196 39.8444 20.698 39.7317 20.7518C39.6191 20.8056 39.4958 20.8334 39.3709 20.8331ZM35.8334 23.1248C35.6308 23.1244 35.4353 23.0502 35.2834 22.9161C35.1315 22.7819 35.0337 22.5971 35.0083 22.3961C34.9829 22.1951 35.0316 21.9917 35.1452 21.8239C35.2589 21.6562 35.4298 21.5356 35.6259 21.4848C35.8734 21.4206 36.1176 21.3406 36.3543 21.2448C36.4564 21.1992 36.5666 21.1747 36.6784 21.1727C36.7902 21.1706 36.9013 21.191 37.005 21.2328C37.1087 21.2746 37.203 21.3368 37.2821 21.4157C37.3613 21.4947 37.4238 21.5887 37.4659 21.6923C37.5079 21.7959 37.5287 21.9069 37.527 22.0187C37.5253 22.1305 37.5011 22.2408 37.4558 22.3431C37.4106 22.4453 37.3452 22.5374 37.2636 22.6139C37.182 22.6903 37.0859 22.7496 36.9809 22.7881C36.6751 22.9131 36.3618 23.0156 36.0426 23.0981C35.9743 23.1159 35.904 23.1249 35.8334 23.1248ZM27.5509 15.8331C27.4326 15.8333 27.3155 15.8084 27.2076 15.7598C27.0996 15.7113 27.0033 15.6403 26.9249 15.5516C26.8465 15.4629 26.788 15.3585 26.7531 15.2454C26.7182 15.1323 26.7078 15.0131 26.7226 14.8956C26.7626 14.579 26.8226 14.2665 26.9009 13.9581C26.9562 13.744 27.0943 13.5605 27.2848 13.4482C27.4753 13.3358 27.7026 13.3037 27.9168 13.359C28.1309 13.4142 28.3144 13.5523 28.4267 13.7428C28.5391 13.9333 28.5712 14.1606 28.5159 14.3748C28.4534 14.6148 28.4076 14.8581 28.3768 15.104C28.3514 15.3052 28.2536 15.4902 28.1015 15.6245C27.9495 15.7587 27.7537 15.8329 27.5509 15.8331ZM29.7543 11.6665C29.585 11.6666 29.4196 11.6151 29.2803 11.5189C29.141 11.4227 29.0343 11.2863 28.9744 11.128C28.9145 10.9696 28.9042 10.7968 28.945 10.6325C28.9858 10.4681 29.0756 10.3201 29.2026 10.2081C30.5348 9.03339 32.2408 8.3696 34.0167 8.33496C35.7925 8.30032 37.5231 8.89707 38.9001 10.019C39.0687 10.1592 39.1752 10.3602 39.1966 10.5784C39.218 10.7966 39.1525 11.0144 39.0144 11.1847C38.8762 11.355 38.6765 11.4639 38.4586 11.488C38.2407 11.512 38.022 11.4492 37.8501 11.3131C36.7792 10.4398 35.433 9.97503 34.0514 10.0016C32.6698 10.0281 31.3425 10.5443 30.3059 11.4581C30.1536 11.5925 29.9574 11.6666 29.7543 11.6665ZM41.3334 8.54147C41.1303 8.54158 40.9341 8.46749 40.7818 8.33313C39.8144 7.47515 38.687 6.81696 37.4643 6.39646C37.3565 6.36476 37.2562 6.31159 37.1695 6.24015C37.0828 6.16871 37.0115 6.08047 36.9597 5.98075C36.908 5.88102 36.877 5.77186 36.8685 5.65984C36.86 5.54781 36.8743 5.43523 36.9104 5.32886C36.9466 5.22249 37.0039 5.12452 37.0788 5.04086C37.1538 4.95719 37.2449 4.88955 37.3467 4.842C37.4485 4.79445 37.5589 4.76797 37.6711 4.76415C37.7834 4.76034 37.8953 4.77927 38.0001 4.8198C39.4316 5.31029 40.7517 6.07954 41.8843 7.08313C42.0112 7.19507 42.101 7.343 42.1418 7.50725C42.1826 7.67149 42.1724 7.84427 42.1126 8.00259C42.0528 8.16091 41.9463 8.29727 41.8071 8.39353C41.6679 8.48979 41.5027 8.54139 41.3334 8.54147Z" fill="#02A0EB"/>
<path d="M34.1667 27.5003C33.5667 27.5011 32.9667 27.4561 32.3733 27.3653C32.262 27.3526 32.1545 27.3175 32.057 27.2623C31.9596 27.207 31.8743 27.1327 31.8062 27.0438C31.7381 26.9548 31.6887 26.853 31.6608 26.7445C31.633 26.636 31.6273 26.523 31.6441 26.4123C31.6609 26.3015 31.6999 26.1953 31.7587 26.0999C31.8175 26.0046 31.8949 25.9221 31.9863 25.8573C32.0777 25.7926 32.1812 25.7469 32.2907 25.7231C32.4002 25.6993 32.5133 25.6977 32.6233 25.7186C33.1342 25.7961 33.65 25.8353 34.1667 25.8336C35.8238 25.8315 37.4545 25.4182 38.9125 24.6306C40.3706 23.843 41.6103 22.7059 42.5206 21.3212C43.4309 19.9364 43.9833 18.3474 44.1282 16.6966C44.2731 15.0459 44.006 13.3849 43.3508 11.8628C43.2635 11.6597 43.2605 11.4302 43.3424 11.2248C43.4243 11.0195 43.5844 10.8551 43.7875 10.7678C43.9906 10.6805 44.2201 10.6774 44.4254 10.7593C44.6308 10.8412 44.7952 11.0013 44.8825 11.2045C45.6464 12.9802 45.9577 14.9177 45.7884 16.8434C45.6191 18.769 44.9744 20.6225 43.9124 22.2377C42.8503 23.8528 41.4039 25.1791 39.703 26.0976C38.002 27.0161 36.0997 27.4981 34.1667 27.5003ZM23.4575 18.3336C23.2588 18.3334 23.0667 18.2621 22.9158 18.1327C22.765 18.0033 22.6654 17.8242 22.635 17.6278C22.5445 17.034 22.4994 16.4342 22.5 15.8336C22.4991 13.4123 23.2523 11.0509 24.6551 9.07733C26.0578 7.10378 28.0405 5.61615 30.3275 4.82112C30.4311 4.78447 30.541 4.76869 30.6507 4.77467C30.7605 4.78066 30.8679 4.80829 30.967 4.85599C31.066 4.90369 31.1546 4.9705 31.2277 5.05258C31.3008 5.13466 31.3569 5.2304 31.3929 5.33426C31.4288 5.43813 31.4438 5.54808 31.4371 5.65779C31.4304 5.76749 31.402 5.87478 31.3537 5.97348C31.3053 6.07218 31.2379 6.16033 31.1553 6.23286C31.0727 6.3054 30.9766 6.36088 30.8725 6.39612C28.913 7.07793 27.2145 8.35299 26.0128 10.0442C24.8111 11.7355 24.1659 13.7589 24.1667 15.8336C24.1667 16.3486 24.205 16.8636 24.2825 17.3728C24.3009 17.4917 24.2934 17.6132 24.2603 17.7289C24.2273 17.8447 24.1696 17.9519 24.0912 18.0432C24.0128 18.1345 23.9156 18.2077 23.8062 18.2578C23.6968 18.308 23.5778 18.3338 23.4575 18.3336ZM35.0242 31.642C34.8032 31.6479 34.5888 31.5658 34.4283 31.4138C34.2678 31.2617 34.1743 31.0521 34.1683 30.8311C34.1624 30.6101 34.2444 30.3958 34.3965 30.2353C34.5486 30.0748 34.7582 29.9813 34.9792 29.9753C36.8866 29.8713 38.7525 29.3784 40.4625 28.527C40.5606 28.4773 40.6676 28.4475 40.7772 28.4394C40.8869 28.4313 40.9971 28.4449 41.1014 28.4796C41.2058 28.5142 41.3022 28.5692 41.3852 28.6412C41.4683 28.7133 41.5362 28.8011 41.5851 28.8996C41.6341 28.9981 41.663 29.1053 41.6703 29.215C41.6777 29.3247 41.6632 29.4348 41.6278 29.5388C41.5924 29.6429 41.5367 29.739 41.464 29.8215C41.3913 29.904 41.303 29.9713 41.2042 30.0195C39.2917 30.9715 37.2048 31.5228 35.0717 31.6395L35.0242 31.642Z" fill="#02A0EB"/>
<path d="M44.1667 27.848C43.998 27.848 43.8332 27.7968 43.6943 27.7011C43.5553 27.6055 43.4486 27.4698 43.3884 27.3122C43.3281 27.1546 43.3171 26.9825 43.3569 26.8185C43.3966 26.6545 43.4852 26.5064 43.6109 26.3939C45.6955 24.5267 47.1814 22.0848 47.8817 19.3753C48.582 16.6659 48.4655 13.8098 47.5467 11.1664C47.5075 11.0623 47.4895 10.9515 47.4938 10.8404C47.4981 10.7293 47.5246 10.6202 47.5717 10.5195C47.6188 10.4187 47.6856 10.3285 47.7682 10.254C47.8507 10.1795 47.9473 10.1222 48.0523 10.0857C48.1573 10.0491 48.2685 10.0338 48.3795 10.0409C48.4905 10.048 48.5989 10.0772 48.6984 10.1268C48.7979 10.1764 48.8865 10.2454 48.9589 10.3298C49.0313 10.4142 49.0861 10.5122 49.1201 10.618C50.1476 13.5722 50.2783 16.7642 49.4958 19.7925C48.7133 22.8207 47.0526 25.5498 44.7226 27.6364C44.5696 27.7729 44.3717 27.8483 44.1667 27.848ZM46.6409 8.33304C46.5038 8.33315 46.3688 8.29944 46.2479 8.2349C46.1269 8.17036 46.0238 8.07698 45.9476 7.96304C44.2428 5.42476 41.7688 3.50021 38.8892 2.4722C38.6868 2.39417 38.5228 2.24029 38.4321 2.04326C38.3413 1.84623 38.331 1.62158 38.4033 1.41705C38.4755 1.21252 38.6247 1.04423 38.8191 0.947936C39.0135 0.851643 39.2377 0.834938 39.4442 0.90137C42.6627 2.04948 45.4279 4.19986 47.3334 7.03637C47.4173 7.16182 47.4656 7.30771 47.473 7.45845C47.4805 7.6092 47.4469 7.75914 47.3758 7.89228C47.3047 8.02541 47.1988 8.13674 47.0693 8.21436C46.9399 8.29199 46.7918 8.33301 46.6409 8.33304ZM19.1667 16.6664C18.9457 16.6664 18.7337 16.5786 18.5775 16.4223C18.4212 16.266 18.3334 16.0541 18.3334 15.833C18.3298 12.7185 19.2461 9.67223 20.9674 7.07648C22.6886 4.48073 25.138 2.45109 28.0084 1.2422C28.2119 1.15601 28.4414 1.1542 28.6463 1.23719C28.8512 1.32017 29.0147 1.48115 29.1009 1.6847C29.1871 1.88826 29.1889 2.11771 29.1059 2.3226C29.0229 2.52748 28.8619 2.69101 28.6584 2.7772C26.0896 3.85857 23.8975 5.67457 22.3572 7.99729C20.8168 10.32 19.9968 13.046 20.0001 15.833C20.0001 16.0541 19.9123 16.266 19.756 16.4223C19.5997 16.5786 19.3877 16.6664 19.1667 16.6664ZM19.9334 21.4005C19.759 21.4004 19.5891 21.3456 19.4475 21.2438C19.3059 21.142 19.1998 20.9983 19.1442 20.833C18.98 20.3472 18.8409 19.8532 18.7276 19.353C18.7001 19.2453 18.6944 19.1332 18.7109 19.0232C18.7274 18.9133 18.7658 18.8077 18.8237 18.7128C18.8816 18.6179 18.9579 18.5356 19.0482 18.4706C19.1384 18.4057 19.2407 18.3594 19.3491 18.3346C19.4575 18.3098 19.5697 18.307 19.6792 18.3262C19.7887 18.3455 19.8933 18.3864 19.9867 18.4467C20.0802 18.507 20.1606 18.5853 20.2233 18.6771C20.2859 18.769 20.3296 18.8724 20.3517 18.9814C20.4542 19.4272 20.5784 19.8714 20.7234 20.3014C20.7657 20.4267 20.7776 20.5603 20.7581 20.6912C20.7385 20.822 20.6881 20.9463 20.611 21.0538C20.5339 21.1613 20.4323 21.2489 20.3146 21.3093C20.1969 21.3698 20.0665 21.4013 19.9342 21.4014L19.9334 21.4005Z" fill="#02A0EB"/>
<path d="M1.90924 49.2592C2.14074 49.4933 2.41638 49.6792 2.7202 49.806C3.02403 49.9329 3.35 49.9982 3.67924 49.9982C4.00849 49.9982 4.33446 49.9329 4.63828 49.806C4.94211 49.6792 5.21775 49.4933 5.44924 49.2592L34.6451 20.0658L34.6534 20.0608L34.6592 20.0525L37.5934 17.1175C37.8276 16.8862 38.0135 16.6107 38.1404 16.307C38.2673 16.0033 38.3326 15.6775 38.3326 15.3483C38.3326 15.0192 38.2673 14.6933 38.1404 14.3896C38.0135 14.0859 37.8276 13.8105 37.5934 13.5792L36.4267 12.4075C35.9513 11.9496 35.3169 11.6938 34.6567 11.6938C33.9966 11.6938 33.3622 11.9496 32.8867 12.4075L29.9476 15.3475H29.9426L0.742575 44.5467C0.507754 44.7777 0.321187 45.0531 0.19371 45.3569C0.0662339 45.6607 0.000389388 45.9868 1.72185e-06 46.3162C-0.000385944 46.6457 0.064691 46.9719 0.191452 47.276C0.318214 47.58 0.504132 47.8559 0.738408 48.0875L1.90924 49.2592ZM34.0659 13.5833C34.1426 13.505 34.2341 13.4428 34.3351 13.4003C34.4362 13.3579 34.5447 13.336 34.6542 13.336C34.7638 13.336 34.8723 13.3579 34.9734 13.4003C35.0744 13.4428 35.1659 13.505 35.2426 13.5833L36.4209 14.7625C36.4988 14.8389 36.5606 14.9301 36.6028 15.0307C36.6451 15.1313 36.6668 15.2392 36.6668 15.3483C36.6668 15.4574 36.6451 15.5654 36.6028 15.666C36.5606 15.7666 36.4988 15.8578 36.4209 15.9342L34.0626 18.2917L31.7084 15.9375L34.0659 13.5833ZM1.91674 45.7292L30.5301 17.1158L32.8842 19.47L4.26758 48.0875C4.11042 48.2414 3.89921 48.3276 3.67924 48.3276C3.45927 48.3276 3.24806 48.2414 3.09091 48.0875L1.91674 46.905C1.83825 46.8285 1.77586 46.7371 1.73327 46.6361C1.69067 46.5352 1.66873 46.4267 1.66873 46.3171C1.66873 46.2075 1.69067 46.099 1.73327 45.998C1.77586 45.8971 1.83825 45.8056 1.91674 45.7292ZM34.1667 1.50579e-10C33.9334 -3.55156e-06 33.7043 0.0628237 33.5035 0.181886C33.3028 0.300949 33.1378 0.471856 33.0259 0.676667L31.9001 2.73417L29.8442 3.85833C29.6392 3.97029 29.4682 4.13538 29.349 4.33627C29.2298 4.53715 29.1669 4.76642 29.1669 5C29.1669 5.23358 29.2298 5.46285 29.349 5.66373C29.4682 5.86462 29.6392 6.02971 29.8442 6.14167L31.9001 7.26583L33.0259 9.32417C33.138 9.52876 33.303 9.69944 33.5038 9.81834C33.7045 9.93723 33.9335 9.99997 34.1667 9.99997C34.4 9.99997 34.629 9.93723 34.8297 9.81834C35.0304 9.69944 35.1955 9.52876 35.3076 9.32417L36.4334 7.26583L38.4901 6.14167C38.6948 6.02952 38.8657 5.86437 38.9847 5.6635C39.1037 5.46264 39.1665 5.23347 39.1665 5C39.1665 4.76653 39.1037 4.53736 38.9847 4.3365C38.8657 4.13564 38.6948 3.97048 38.4901 3.85833L36.4334 2.73417L35.3076 0.676667C35.1956 0.471915 35.0306 0.301057 34.8299 0.182003C34.6292 0.0629494 34.4001 8.51159e-05 34.1667 1.50579e-10ZM35.5392 4.145L37.1026 5L35.5392 5.855C35.3208 5.97413 35.1414 6.15383 35.0226 6.3725L34.1667 7.93667L33.3134 6.37667C33.1943 6.15634 33.014 5.97517 32.7942 5.855L31.2309 5L32.7942 4.145C33.0127 4.02587 33.1921 3.84617 33.3109 3.6275L34.1667 2.06333L35.0201 3.62333C35.1392 3.84333 35.3201 4.025 35.5392 4.145ZM36.5126 31.795L35.3876 29.7375C35.2757 29.5329 35.1109 29.3621 34.9103 29.2432C34.7097 29.1242 34.4808 29.0614 34.2476 29.0614C34.0144 29.0614 33.7855 29.1242 33.5849 29.2432C33.3843 29.3621 33.2194 29.5329 33.1076 29.7375L31.9817 31.795L29.9234 32.9167C29.7188 33.0289 29.5482 33.194 29.4293 33.3948C29.3105 33.5956 29.2478 33.8246 29.2478 34.0579C29.2478 34.2912 29.3105 34.5203 29.4293 34.7211C29.5482 34.9218 29.7188 35.087 29.9234 35.1992L31.9809 36.3233L33.1059 38.38C33.2179 38.5845 33.3828 38.7551 33.5834 38.874C33.7839 38.9929 34.0127 39.0557 34.2458 39.0559C34.479 39.0561 34.7079 38.9936 34.9086 38.875C35.1093 38.7563 35.2744 38.586 35.3867 38.3817L36.5117 36.3233L38.5701 35.1983C38.7749 35.0864 38.9458 34.9215 39.0649 34.7207C39.1839 34.52 39.2468 34.2909 39.2468 34.0575C39.2468 33.8241 39.1839 33.595 39.0649 33.3943C38.9458 33.1936 38.7749 33.0286 38.5701 32.9167L36.5126 31.795ZM35.6159 34.9167C35.3992 35.0367 35.2217 35.215 35.1026 35.4325L34.2501 37L33.3942 35.4358C33.2747 35.218 33.0955 35.0387 32.8776 34.9192L31.3134 34.0642L32.8776 33.2092C33.0959 33.09 33.2751 32.9108 33.3942 32.6925L34.2501 31.125L35.1076 32.6917C35.2267 32.9083 35.4051 33.0867 35.6226 33.2058L37.1867 34.0608L35.6159 34.9167ZM38.1292 9.77417C37.939 9.878 37.7803 10.0311 37.6697 10.2175C37.5591 10.4039 37.5007 10.6166 37.5007 10.8333C37.5007 11.0501 37.5591 11.2628 37.6697 11.4492C37.7803 11.6355 37.939 11.7887 38.1292 11.8925L39.7309 12.7683L40.6084 14.3717C40.7124 14.5617 40.8656 14.7202 41.052 14.8306C41.2383 14.9411 41.451 14.9993 41.6676 14.9993C41.8842 14.9993 42.0968 14.9411 42.2832 14.8306C42.4695 14.7202 42.6227 14.5617 42.7267 14.3717L43.6042 12.7675L45.2051 11.8917C45.3953 11.7878 45.5541 11.6347 45.6647 11.4483C45.7753 11.2619 45.8336 11.0492 45.8336 10.8325C45.8336 10.6158 45.7753 10.4031 45.6647 10.2167C45.5541 10.0303 45.3953 9.87716 45.2051 9.77333L43.6034 8.8975L42.7259 7.29417C42.6219 7.10416 42.4687 6.94564 42.2823 6.83521C42.096 6.72478 41.8834 6.66651 41.6667 6.66651C41.4501 6.66651 41.2375 6.72478 41.0512 6.83521C40.8648 6.94564 40.7116 7.10416 40.6076 7.29417L39.7301 8.89833L38.1292 9.77417ZM40.6517 10.2942C40.8534 10.1833 41.0184 10.0167 41.1284 9.815L41.6667 8.83333L42.2042 9.81417C42.3142 10.0183 42.4817 10.1858 42.6851 10.2967L43.6667 10.8333L42.6801 11.3725C42.4784 11.4833 42.3134 11.65 42.2034 11.8517L41.6667 12.8333L41.1292 11.8525C41.0191 11.6485 40.852 11.4809 40.6484 11.37L39.6667 10.8333L40.6517 10.2942Z" fill="black"/>
</svg>
