<svg width="24" height="24" viewBox="0 0 50 50" fill="none" xmlns="http://www.w3.org/2000/svg">
<path d="M34.0667 19.4747L4.85834 48.6747C4.70435 48.8311 4.52079 48.9553 4.31835 49.04C4.11592 49.1248 3.89864 49.1684 3.67918 49.1684C3.45971 49.1684 3.24244 49.1248 3.04 49.04C2.83756 48.9553 2.65401 48.8311 2.50001 48.6747L1.32501 47.4997C1.16864 47.3457 1.04447 47.1622 0.959708 46.9598C0.874949 46.7573 0.831299 46.54 0.831299 46.3206C0.831299 46.1011 0.874949 45.8838 0.959708 45.6814C1.04447 45.479 1.16864 45.2954 1.32501 45.1414L30.5333 15.9414L34.0667 19.4747Z" fill="white"/>
<path d="M37.0083 16.5251L34.0667 19.4751L30.5333 15.9418L33.475 12.9918C33.629 12.8354 33.8125 12.7112 34.015 12.6265C34.2174 12.5417 34.4347 12.498 34.6542 12.498C34.8736 12.498 35.0909 12.5417 35.2933 12.6265C35.4958 12.7112 35.6793 12.8354 35.8333 12.9918L37.0083 14.1668C37.1647 14.3208 37.2889 14.5043 37.3736 14.7067C37.4584 14.9092 37.502 15.1265 37.502 15.3459C37.502 15.5654 37.4584 15.7827 37.3736 15.9851C37.2889 16.1875 37.1647 16.3711 37.0083 16.5251Z" fill="white"/>
<path d="M34.5767 1.07715L35.75 3.22799C35.7928 3.30654 35.8573 3.37107 35.9359 3.41382L38.0867 4.59049C38.1602 4.63077 38.2216 4.69009 38.2643 4.76222C38.307 4.83435 38.3296 4.91665 38.3296 5.00049C38.3296 5.08433 38.307 5.16662 38.2643 5.23876C38.2216 5.31089 38.1602 5.3702 38.0867 5.41049L35.9392 6.58382C35.8606 6.62657 35.7961 6.6911 35.7534 6.76965L34.5767 8.92049C34.5364 8.99402 34.4771 9.05536 34.405 9.09809C34.3328 9.14082 34.2505 9.16336 34.1667 9.16336C34.0829 9.16336 34.0006 9.14082 33.9284 9.09809C33.8563 9.05536 33.797 8.99402 33.7567 8.92049L32.5834 6.77299C32.5406 6.69443 32.4761 6.6299 32.3975 6.58715L30.2434 5.41049C30.1698 5.3702 30.1085 5.31089 30.0658 5.23876C30.023 5.16662 30.0005 5.08433 30.0005 5.00049C30.0005 4.91665 30.023 4.83435 30.0658 4.76222C30.1085 4.69009 30.1698 4.63077 30.2434 4.59049L32.3942 3.41715C32.4728 3.37441 32.5373 3.30987 32.58 3.23132L33.7567 1.08049C33.7967 1.0068 33.8557 0.945211 33.9277 0.902187C33.9997 0.859163 34.0819 0.836282 34.1657 0.835941C34.2495 0.835601 34.3319 0.857812 34.4042 0.90025C34.4766 0.942688 34.5361 1.00379 34.5767 1.07715Z" fill="#FFD300"/>
</svg> 